<?xml version="1.0" encoding="utf-8"?>
<!-- Generator: Adobe Illustrator 18.0.0, SVG Export Plug-In . SVG Version: 6.00 Build 0)  -->
<!DOCTYPE svg PUBLIC "-//W3C//DTD SVG 1.1//EN" "http://www.w3.org/Graphics/SVG/1.1/DTD/svg11.dtd">
<svg version="1.1" id="Layer_1" xmlns="http://www.w3.org/2000/svg" xmlns:xlink="http://www.w3.org/1999/xlink" x="0px" y="0px"
	 viewBox="0 0 510 80.5" enable-background="new 0 0 510 80.5" xml:space="preserve">
<g>
	<g>
		<path fill="none" stroke="#FFFFFF" stroke-width="2" stroke-miterlimit="10" d="M187.8,51.9c-1.9-0.4-3.4-0.9-4.6-1.2
			c-1.2-0.4-2.1-0.7-2.8-1c-1.2-0.6-1.8-1.3-1.8-2.3c0-1.2,0.5-2,1.6-2.6c1.1-0.6,2.7-0.8,5-0.8c1.9,0,3.8,0.2,5.8,0.6
			c1.9,0.4,3.5,1,4.8,1.7l0.8-9.2c-0.8-0.3-1.7-0.5-2.6-0.7c-1-0.2-2-0.4-3.2-0.6c-2.4-0.4-4.7-0.6-7-0.6c-5.1,0-9.3,1.1-12.7,3.4
			c-3.4,2.2-5.1,5.4-5.1,9.5c0,3.6,1.1,6.4,3.4,8.1c1.1,0.9,2.4,1.6,3.8,2.2c1.4,0.6,2.9,1.1,4.5,1.4c1.5,0.3,2.9,0.7,3.9,1.1
			c1.1,0.4,1.9,0.7,2.6,1.1c1.2,0.7,1.8,1.7,1.8,2.8c0,1.4-0.6,2.4-1.8,3c-1.2,0.6-2.8,0.9-4.7,0.9c-2.8,0-5.3-0.4-7.7-1.3
			c-1.2-0.4-2.2-0.8-2.9-1c-0.8-0.3-1.3-0.5-1.7-0.7l-0.8,9.7c0.8,0.3,1.7,0.6,2.7,0.9c1,0.3,2.2,0.5,3.4,0.6
			c1.2,0.2,2.5,0.3,3.8,0.4c1.3,0.1,2.6,0.2,3.9,0.2c5.8,0,10.4-1.2,13.7-3.5c3.3-2.3,5-5.6,5-9.9c0-3.2-0.9-5.7-2.7-7.7
			C194.5,54.4,191.7,52.9,187.8,51.9z"/>
		<path fill="none" stroke="#FFFFFF" stroke-width="2" stroke-miterlimit="10" d="M229,55.7L242.5,36h-14.7l-11.1,18h0.4V15.5v-0.1
			c-1,0-1.5,0.2-2.4,0.6c-0.8,0.4-1.8,0.9-2.7,1.6c-0.9,0.7-1.9,1.5-2.8,2.5c-0.9,0.9-1.8,2-2.5,3.1c-0.7,1.1-1.4,2.3-1.9,3.5
			c-0.4,1.2-0.8,2.4-0.8,3.6V31v46h12v-1h1V57h-0.4l10.7,20h16.3L229,55.7z"/>
	</g>
	<path fill="none" stroke="#FFFFFF" stroke-width="2" stroke-miterlimit="10" d="M247.4,36H262l6.5,29h0.2l7-29h16.8l6.8,29h0.2
		l6.3-29h13.5l-12.3,41h-16.1l-6.9-30h-0.2L276,77h-16.2L247.4,36z"/>
	<path fill="none" stroke="#FFFFFF" stroke-width="2" stroke-miterlimit="10" d="M402,30.9c0-1.2,0.3-2.5,0.7-3.7
		c0.5-1.3,1.1-2.4,1.9-3.6c0.8-1.1,1.6-2.2,2.5-3.2c0.9-1,1.9-1.8,2.8-2.6c0.9-0.7,1.9-1.3,2.8-1.7c0.9-0.4,1.3-0.6,2.3-0.6V77h-13
		V30.9z"/>
	<g>
		<path fill="none" stroke="#FFFFFF" stroke-width="2" stroke-miterlimit="10" d="M88.2,18c-1.7,0-4.3,0.7-5.8,2.7
			c-1.4,1.8-2.3,3.7-2.3,5.4V29h18v48h12V29h17V18H88.2z"/>
	</g>
	<g>
		<path fill="none" stroke="#FFFFFF" stroke-width="2" stroke-miterlimit="10" d="M363.6,56.5c0,6.5-2,11.6-5.9,15.5
			c-3.9,3.9-9.1,5.8-15.6,5.8c-6.5,0-11.7-1.9-15.6-5.8c-3.9-3.9-5.9-9-5.9-15.5c0-6.5,2-11.7,5.9-15.6c2-2,4.3-3.5,6.9-4.5
			c2.6-1,5.5-1.5,8.7-1.5c3.2,0,6.2,0.5,8.7,1.5c2.6,1,4.8,2.5,6.8,4.5C361.7,44.8,363.6,50,363.6,56.5z M351.3,56.5
			c0-3.8-0.8-6.8-2.4-8.8c-1.6-2.1-3.9-3.2-6.8-3.2s-5.2,1.1-6.9,3.2c-1.6,2.1-2.4,5-2.4,8.8c0,3.7,0.8,6.6,2.4,8.7
			c1.6,2.2,3.9,3.2,6.8,3.2c2.9,0,5.2-1.1,6.8-3.2C350.5,63.1,351.3,60.2,351.3,56.5z"/>
	</g>
	<path fill="none" stroke="#FFFFFF" stroke-width="2" stroke-miterlimit="10" d="M160,48.5c0-1.7-0.1-3.3-0.7-4.9
		c-0.6-1.6-1.4-3-2.6-4.3c-1.2-1.2-2.5-2.2-4.1-3c-0.5-0.2-0.9-0.4-1.4-0.5c-1-0.4-2.6-0.7-5.3-0.9c-6.9-0.5-12.7,0.9-16.3,2
		c-1.3,0.4-2.4,0.7-3.4,1.2c-0.1,0-0.1-0.1-0.1-0.1h0c-0.2,0-0.1,0.4-0.1,0.4v9.7c1-0.7,1.6-1.2,2.7-1.7c1.1-0.5,2.1-0.9,3.3-1.3
		c1.2-0.4,2.3-0.7,3.5-0.9c0.4-0.1,0.8-0.1,1.2-0.1c1.2-0.1,3.6-0.1,5.6,0.7c2.4,1,3.6,2.5,3.9,2.9c0.2,0.2,0.3,0.5,0.5,0.7
		c0.4,0.9,0.7,1.9,0.9,2.9l-6.3-0.1c-3.3,0-6.3,0.3-8.8,0.9c-2.5,0.6-4.7,1.5-6.4,2.7c-3.5,2.4-5.3,5.8-5.3,10.2
		c0,3.6,1.3,6.6,4,8.9c2.6,2.3,6.3,3.5,11,3.5c2,0,4-0.4,5.7-1.1l0,0c0,0,4-1.2,7.2-6.3c0.1-0.1,0.2-0.3,0.2-0.4V76h11.5l-0.1-21
		H160V48.5z M149,59c0,2.3-1.1,4.5-2.8,6.5c-1.7,2.1-4.1,3.1-6.9,3.1c-2.1,0-3.7-0.4-4.7-1.2c-1.1-0.8-1.7-1.9-1.7-3.3
		c0-1.8,0.8-3.2,2.5-4.2c1.6-0.9,4.1-1.4,7.6-1.5c0.7,0,1.4,0,2,0c0.6,0,1.4,0,1.8,0c0.9,0,1.2-0.1,2.2-0.3V59z"/>
	<path fill="none" stroke="#FFFFFF" stroke-width="2" stroke-miterlimit="10" d="M464.8,15c-0.6,0-1.3,0.4-2.2,0.8
		c-0.9,0.4-1.8,1.1-2.7,1.8c-0.9,0.7-1.9,1.6-2.8,2.6c-0.9,1-1.8,2.1-2.5,3.2c-0.8,1.1-1.4,2.3-1.8,3.6c-0.5,1.2-0.7,2.5-0.7,3.8
		v10.9c0-0.6-1.7-1.9-3.1-3.2c-1.6-1.4-3.3-2.4-5.3-3c-1.9-0.6-4.6-0.5-4.6-0.5v0c-1,0-0.6,0-0.8,0c-2.9,0.2-5.1,0.6-7.1,1.5
		c-2.1,0.9-4.1,2.2-5.7,4.2c-3.3,3.7-4.9,8.7-4.9,14.9c0,6.6,1.6,11.9,4.9,15.9c3.3,4,7.9,5.9,13.7,5.9c2.8,0,5.4-0.6,7.9-1.9
		c0.5-0.2,1.1-0.6,1.7-1c0.6-0.4,1.2-0.9,1.8-1.4c0.6-0.5,1.4-1.1,2-1.6c0.5-0.6,0.7-1.1,1.7-1.7V77h11V15H464.8z M449.3,64.6
		c-1.7,2-4,3-6.7,3c-2.8,0-5-1.1-6.7-3.2c-1.6-2.2-2.4-5.1-2.4-8.6c0-3.3,0.8-6,2.5-8c1.7-2,3.9-3,6.7-3c2.9,0,5.2,1.1,6.8,3.3
		c0.4,0.6,0.7,1.2,1.1,1.7c0.3,0.6,0.6,1.1,0.7,1.7c0.2,0.8,0.4,1.6,0.5,2.4c0.1,0.9,0.2,1.8,0.2,2.7
		C452,59.9,451.1,62.5,449.3,64.6z"/>
	<path fill="none" stroke="#FFFFFF" stroke-width="2" stroke-miterlimit="10" d="M396.9,35.7c-3.9-0.9-14.4-2.4-21.6,3.7
		c-5.2,4.4-6.2,9.2-6.2,13.7V77h13V59.6c0-2.4-0.1-4.4,0.5-6.3c0.6-2,1.6-3.6,2.8-4.7c1.2-1.1,2.7-1.9,4.5-2.2
		c1.8-0.3,4.1-0.2,6.6,0.5c0-0.5,0-0.7,0.1-1.2c0.1-2.1,0.2-4.2,0.3-6.3c0-0.8,0.1-1.4,0.1-2.4h0L396.9,35.7
		C396.9,35.6,396.9,35.7,396.9,35.7z"/>
	<path fill="none" stroke="#FFFFFF" stroke-width="2" stroke-miterlimit="10" d="M0,36.5c0,0,9.7,5.8,17.4,19.6
		c5.5,9.8,9.3,21,9.3,21s1.3,5.2,7.9,2.8c6.5-2.4,8.9-6.7,10.6-11.1c3.8-10.5,7.9-21.2,13-31.2C73.3,7.9,90.9,0,90.9,0
		s-5.3-1.1-19.1,8.4c-7,4.8-15.7,12.7-24.4,24.2c-9.8,12.8-12.9,20.6-12.9,20.6S29,41.9,19.8,36.1C15.2,33.3,6,31.4,0,36.5z"/>
	<g>
		<path fill="none" stroke="#FFFFFF" stroke-width="2" stroke-miterlimit="10" d="M480,19h-5v-4h14v4h-5v14h-4V19z"/>
		<path fill="none" stroke="#FFFFFF" stroke-width="2" stroke-miterlimit="10" d="M505.8,26.3c-0.1-2.1-0.2-4.3-0.2-7.3h-0.1
			c-0.6,2-1.3,4.9-2,7l-2.2,7h-3.1l-1.9-6.9c-0.6-2.1-1.2-5.1-1.6-7.1h-0.1c-0.1,2-0.2,5.1-0.3,7.3l-0.3,6.7h-3.7l1.1-18h5.3
			l1.7,6.3c0.6,2.1,1.1,4.7,1.5,6.7h0.1c0.5-2,1.1-4.8,1.7-6.7l1.9-6.3h5.3l0.9,18h-3.9L505.8,26.3z"/>
	</g>
</g>
</svg>
