<?xml version="1.0" encoding="utf-8"?>
<!-- Generator: Adobe Illustrator 17.1.0, SVG Export Plug-In . SVG Version: 6.00 Build 0)  -->
<!DOCTYPE svg PUBLIC "-//W3C//DTD SVG 1.1//EN" "http://www.w3.org/Graphics/SVG/1.1/DTD/svg11.dtd">
<svg version="1.1" id="Layer_1" xmlns="http://www.w3.org/2000/svg" xmlns:xlink="http://www.w3.org/1999/xlink" x="0px" y="0px"
	 viewBox="0 0 595.3 841.9" enable-background="new 0 0 595.3 841.9" xml:space="preserve">
<rect x="0.1" fill="#FEE05B" width="595.3" height="841.9"/>
<rect x="0.1" y="311" fill="#B9E2F5" width="595.3" height="529.8"/>
<g>
	<g id="vE1nTU_3_">
		<g>
			<path fill="#F05023" d="M199.2,60.1c-0.6,0.2-1,0.3-1.2,0.5c-3.4,4.1-6.9,8.1-10,12.3c-1.1,1.5-1.9,2.8-4,3.3
				c-2.9,0.7-4.2,6-2.3,8.1c0.5,0.5,0.6,1.6,0.4,2.3c-1,4.9-2.2,9.7-3.3,14.6c-0.5,2-1.1,4-1.2,6.1c-0.3,4.6,0.1,9,0.9,13.6
				c0.9,5.2,7.1,11.9,12.5,12.8c5,0.9,9.8,1,14.7-0.2c4.2-1,8.4-2.2,11.8-5c4.5-3.6,9-7.1,13-11.1c5.8-5.7,9.2-12.8,9.4-21.1
				c0.1-3-0.1-6-0.1-9c0.2-11-3.3-20.9-8.8-30.2c-1.8-3-7.5-3.1-9.5-0.2c-0.9,1.4-1.8,2-3,0.4c-1-1.3-1.9-0.9-2.8,0.2
				c-1,1.2-2.2,2.3-3.7,4c-0.5-3.2-2-4.1-4.5-3.7c-2.5,0.3-5,0.3-5.1,3.8c0,0.4-0.7,1-1.2,1c-0.4,0.1-1-0.4-1.4-0.8
				C199.6,61.4,199.5,60.8,199.2,60.1z M403.2,139.6c5,0.6,13.2-4.6,14.5-11c1.1-5.3,1.8-10.9,1.5-16.3c-0.3-6.9-1.8-13.7-2.7-20.5
				c-0.1-0.9,0-2.2,0.6-2.6c2.3-1.8,0.9-3.9,0.5-5.7c-0.4-1.7-1.2-3.3-3.5-3.6c-1.1-0.1-2.4-1.1-3.1-2.1c-3-4.1-5.8-8.3-8.7-12.4
				c-1-1.5-1.8-2.2-2.8,0.1c-0.7,1.7-1.8,1.1-2.5-0.2c-0.3-0.5-0.3-1.1-0.4-1.7c-0.4-2-2-2.4-3.6-2.4c-1.4,0-3.3-0.1-4.1,0.7
				c-1.9,2.1-1.7,2.3-3.7,0.1c-0.5-0.5-0.9-1-1.4-1.5c-1-1.1-1.9-1.4-2.7,0.2c-0.8,1.6-1.8,1.5-2.5,0.1c-1.7-3.1-4.8-2.1-7.3-2.7
				c-0.4-0.1-1.3,0.5-1.6,1c-3.1,4.4-6,8.9-6.8,14.5c-0.3,2.5-1,5-1.6,7.4c-2.2,8.5-4.6,17.1-0.8,25.8c2.1,4.8,3.9,9.8,6.6,14.2
				C374.9,133.2,386.8,138.2,403.2,139.6z M336.9,209.2c0.2-7.1-5.2-10.3-9.7-9.9c-4.8,0.4-9.6,1.5-14.4,2.4c-7,1.4-14.1,2-21.2,1.5
				c-3.1-0.2-6.2-0.3-9.3-0.4c-0.2,0-0.5-0.1-0.7-0.2c-3-0.4-6.1-0.7-9.1-1c-1.7-0.2-2.7,0.5-3,2.3c-0.4,2.1-0.9,4.2-1.3,6.3
				c-0.3,2-0.2,4-2.1,5.4c-0.4,0.3-0.5,1.5-0.3,2c3.5,7.2,7.1,14.4,10.7,21.6c0.8,1.5,1.8,1.8,3.3,0.9c1.5-0.9,2.7-0.6,3.7,0.8
				c0.7,0.9,1.4,1.9,2.1,2.8c3.8,5.2,7.7,10.4,11.5,15.6c1,1.3,2,1.6,3.6,0.8c6.7-3.6,12.7-8,17.8-13.8c5.5-6.4,10.6-12.9,14.1-20.7
				C334.9,220.2,336.6,214.9,336.9,209.2z M398,171.9c0,2.5,1.1,4.6,3.2,6.2c2.7,2,5.7,1.3,7.2-1.7c1.2-2.4,0.4-5.3-2.3-7.7
				c-1.3-1.2-2.8-2.6-4.8-1.6C399.1,168,398.1,169.9,398,171.9z M189.2,169c-0.1,3.7,2.3,6,5.2,5.1c3-0.9,5.6-4.5,5.4-7.6
				c-0.2-3.4-3.8-5.8-6.5-4.1C190.8,164,189.2,166.2,189.2,169z M159.9,165.4c0.1,1.9,0.8,3.7,3,4.5c2.2,0.8,3.6-0.6,4.6-2.1
				c1-1.4,1.7-3,2.3-4.7c0.7-2-0.5-3.7-2.1-4.6c-1.1-0.6-2.9-0.7-3.9-0.2C161.2,159.8,159.9,162.2,159.9,165.4z M435.7,171.8
				c-0.5-3.9-1.9-6.3-4.6-7.9c-1.6-0.9-2.8-0.5-3.9,0.9c-2.2,2.9-1.5,7.3,1.8,9.4c1.1,0.7,3.1,1.1,4.3,0.6
				C434.5,174.3,435.2,172.5,435.7,171.8z"/>
			<path d="M199.2,60.1c0.3,0.8,0.4,1.4,0.8,1.8c0.3,0.4,0.9,0.8,1.4,0.8c0.4-0.1,1.2-0.7,1.2-1c0.1-3.5,2.6-3.4,5.1-3.8
				c2.5-0.3,4,0.5,4.5,3.7c1.5-1.6,2.7-2.7,3.7-4c0.9-1.1,1.8-1.6,2.8-0.2c1.3,1.6,2.1,1,3-0.4c2-2.9,7.7-2.8,9.5,0.2
				c5.5,9.3,9,19.2,8.8,30.2c0,3,0.1,6,0.1,9c-0.2,8.3-3.6,15.3-9.4,21.1c-4,4-8.6,7.6-13,11.1c-3.4,2.7-7.6,3.9-11.8,5
				c-4.9,1.2-9.7,1-14.7,0.2c-5.4-0.9-11.6-7.6-12.5-12.8c-0.8-4.6-1.2-9-0.9-13.6c0.1-2,0.8-4,1.2-6.1c1.1-4.9,2.3-9.7,3.3-14.6
				c0.2-0.7,0-1.8-0.4-2.3c-1.9-2.2-0.7-7.4,2.3-8.1c2-0.5,2.8-1.8,4-3.3c3.1-4.3,6.6-8.3,10-12.3C198.2,60.3,198.6,60.3,199.2,60.1
				z M228.5,74.9c-0.3,0-0.6,0-1,0c-0.3,1.5-0.7,3-1,4.5c-0.6,2.9-0.9,5.9-1.6,8.8c-1.2,4.8-3,9.4-8,11.8c-0.9,0.5-1.5,1.7-2.3,2.5
				c-1.2,1.3-2.3,3.1-3.8,3.7c-9.2,3.7-21.1-0.8-20.9-10.9c0-0.5-0.5-0.9-0.8-1.4c-0.4,0.4-1.2,0.7-1.2,1.2
				c-0.6,3.3-1.3,6.5-1.5,9.8c-0.2,2.5,0.1,5.2,0.6,7.7c0.6,2.9,1.4,5.8,2.6,8.5c0.7,1.7,2,3.6,3.6,4.4c4.3,2.2,11.3-0.1,13.9-4.2
				c0.4-0.6,0.8-1.2,1.2-1.8c3.3,2.4,3.3,2.4,6.4,0.1c0.5-0.4,1.1-0.8,1.6-1.2c9.1-6.3,13.9-14.8,13.2-26c-0.3-4.5-0.1-9-0.3-13.5
				C229,77.8,228.7,76.4,228.5,74.9z M219,82.3c-3.3,7-8.3,12-15.7,14.5c2.4,3.4,4.9,3.5,7.1,0.7c1.1-1.5,2.4-2.9,3.8-4.2
				C217.2,90.3,219.2,87,219,82.3z M216.4,74.3c0.1-2.9-2.2-5.3-4.9-5c-0.6,0.1-1.2,0.6-1.8,1c0.5,0.4,0.9,1.2,1.5,1.3
				c1.8,0.3,2.2,1.5,1.8,2.9c-0.4,1.4-1.3,2.6-1.9,4c-0.3,0.6-0.4,1.3-0.6,2c0.7,0,1.4,0.2,2.1,0C214.9,79.6,216.3,77.4,216.4,74.3z
				 M199.8,91.9c0.4-0.2,0.8-0.3,1.2-0.5c0.5-3.2-0.1-6.2-1.6-9.2c-0.6-1.2-0.7-2.5-1-3.8c-0.1-0.5-0.1-1.1-0.2-1.6
				c-2.3,1-3,2.7-1.9,4.8c1,1.8,1.3,3.5,1.3,5.6C197.5,88.8,199,90.4,199.8,91.9z"/>
			<path d="M403.2,139.6c-16.4-1.5-28.3-6.4-36-18.7c-2.8-4.4-4.5-9.4-6.6-14.2c-3.9-8.7-1.5-17.2,0.8-25.8c0.6-2.5,1.3-4.9,1.6-7.4
				c0.8-5.6,3.7-10.1,6.8-14.5c0.3-0.5,1.2-1.1,1.6-1c2.5,0.6,5.6-0.4,7.3,2.7c0.7,1.3,1.8,1.5,2.5-0.1c0.8-1.6,1.7-1.3,2.7-0.2
				c0.4,0.5,0.9,1,1.4,1.5c2,2.2,1.8,2,3.7-0.1c0.8-0.8,2.7-0.7,4.1-0.7c1.6,0,3.2,0.4,3.6,2.4c0.1,0.6,0.1,1.2,0.4,1.7
				c0.7,1.3,1.8,1.9,2.5,0.2c1-2.3,1.8-1.6,2.8-0.1c2.8,4.2,5.7,8.4,8.7,12.4c0.7,1,2,2,3.1,2.1c2.4,0.3,3.2,1.9,3.5,3.6
				c0.4,1.9,1.8,3.9-0.5,5.7c-0.6,0.4-0.7,1.8-0.6,2.6c0.9,6.8,2.4,13.6,2.7,20.5c0.3,5.4-0.4,11-1.5,16.3
				C416.3,135,408.1,140.2,403.2,139.6z M369.5,94.9c-0.2,0.1-0.4,0.1-0.6,0.2c-0.1,1-0.3,2-0.2,3c1.3,10.1,4.7,19.3,12.3,26.6
				c1.9,1.8,3.6,2.6,5.9,1.1c1.2-0.8,2.2-0.6,2.7,0.9c0.7,2.3,2.4,3,4.6,3c1.9-0.1,3.8,0,5.7-0.2c1-0.1,2.2-0.4,3-1
				c3.2-2.6,5.4-5.9,6.3-9.9c2.1-10.1,0.7-19.8-3-29.3c-0.3-0.8-1-1.4-1.5-2.1c-0.2,0.1-0.4,0.2-0.6,0.3c0.1,1.1,0.3,2.1,0.2,3.2
				c-0.3,3.9-0.2,7.8-1,11.6c-1.3,5.7-6.2,8.8-12,8.2c-9.5-0.9-16.2-5.9-20.6-14.2C370.4,95.7,369.9,95.3,369.5,94.9z M398.1,87.1
				c-0.3-0.1-0.5-0.1-0.8-0.2c-1.2,3.8-2.3,7.6-3.5,11.3c0,0.1,0,0.2,0,0.2c1.8,2.6,0.5,4.7-0.9,6.8c-0.3,0.4,0,1.2,0,1.8
				c0.5-0.2,1.1-0.2,1.4-0.6C398.3,102.7,400.2,92.3,398.1,87.1z M384.9,101c-2.6-3.4-4.8-6.4-7.1-9.4c-0.5-0.7-1-1.6-1.6-2.2
				c-0.5-0.4-1.3-0.2-2-0.3c0,0.6-0.2,1.3,0,1.8c2,3.7,4.2,7.2,8.1,9.2C383,100.6,383.9,100.7,384.9,101z M386.6,83.1
				c0.3-0.2,0.6-0.4,0.9-0.6c-0.8-1.6-2.2-3.3-2.1-4.9c0-1.6,1.6-3.1,2.9-5.3c-1.5,0.3-3.1,0.2-3.7,0.9c-1.1,1.2-2.5,3.1-2.3,4.5
				C382.5,80.2,384.5,81.8,386.6,83.1z M371.2,78.7c2,0.1,5-3.7,4.2-5.1c-0.2-0.5-1.8-0.8-2.1-0.5c-1.1,1.2-1.9,2.6-2.7,4.1
				C370.5,77.5,371,78.2,371.2,78.7z M382.4,91.5c0.3-0.2,0.6-0.4,0.9-0.6c-0.8-1.6-1.6-3.3-2.5-4.9c-0.2-0.3-1-0.5-1.5-0.4
				c-0.2,0-0.6,0.8-0.5,1.2C379.3,88.9,380.3,90.6,382.4,91.5z"/>
			<path d="M336.9,209.2c-0.3,5.7-2,11.1-4.3,16.3c-3.5,7.7-8.6,14.3-14.1,20.7c-5.1,5.8-11.1,10.2-17.8,13.8
				c-1.6,0.9-2.6,0.5-3.6-0.8c-3.8-5.2-7.7-10.4-11.5-15.6c-0.7-0.9-1.4-1.9-2.1-2.8c-1-1.4-2.2-1.7-3.7-0.8
				c-1.4,0.9-2.5,0.6-3.3-0.9c-3.6-7.2-7.2-14.4-10.7-21.6c-0.3-0.5-0.1-1.7,0.3-2c1.9-1.4,1.8-3.4,2.1-5.4c0.3-2.1,0.9-4.2,1.3-6.3
				c0.3-1.7,1.3-2.4,3-2.3c3,0.3,6.1,0.7,9.1,1c0.2,0,0.5,0.2,0.7,0.2c3.1,0.1,6.2,0.2,9.3,0.4c7.2,0.5,14.2-0.1,21.2-1.5
				c4.8-0.9,9.6-2,14.4-2.4C331.7,198.9,337,202.1,336.9,209.2z"/>
			<path fill="#F05023" d="M398,171.9c0.1-2.1,1.1-3.9,3.2-4.9c2.1-1,3.5,0.4,4.8,1.6c2.7,2.4,3.5,5.3,2.3,7.7
				c-1.5,3-4.5,3.8-7.2,1.7C399.1,176.5,398,174.4,398,171.9z"/>
			<path fill="#F05023" d="M189.2,169c0-2.8,1.7-5,4.2-6.6c2.7-1.7,6.3,0.7,6.5,4.1c0.1,3.1-2.5,6.7-5.4,7.6
				C191.5,175,189.1,172.7,189.2,169z"/>
			<path fill="#F05023" d="M159.9,165.4c0-3.3,1.4-5.7,3.9-7.1c1-0.6,2.8-0.4,3.9,0.2c1.7,0.9,2.8,2.6,2.1,4.6
				c-0.5,1.6-1.3,3.3-2.3,4.7c-1,1.5-2.4,2.9-4.6,2.1C160.7,169.1,160,167.3,159.9,165.4z"/>
			<path fill="#F05023" d="M435.7,171.8c-0.5,0.7-1.2,2.5-2.3,3c-1.2,0.5-3.2,0.2-4.3-0.6c-3.3-2.2-4-6.6-1.8-9.4
				c1.1-1.4,2.3-1.8,3.9-0.9C433.8,165.5,435.2,167.9,435.7,171.8z"/>
			<path fill="#FFFFFF" d="M228.5,74.9c0.2,1.4,0.5,2.9,0.6,4.3c0.1,4.5,0,9,0.3,13.5c0.6,11.3-4.1,19.7-13.2,26
				c-0.5,0.4-1.1,0.8-1.6,1.2c-3.2,2.3-3.2,2.3-6.4-0.1c-0.4,0.6-0.8,1.2-1.2,1.8c-2.6,4.1-9.6,6.4-13.9,4.2
				c-1.6-0.8-2.8-2.7-3.6-4.4c-1.2-2.7-2-5.6-2.6-8.5c-0.5-2.5-0.7-5.1-0.6-7.7c0.2-3.3,0.9-6.6,1.5-9.8c0.1-0.5,0.8-0.8,1.2-1.2
				c0.3,0.5,0.8,0.9,0.8,1.4c-0.2,10.1,11.7,14.5,20.9,10.9c1.5-0.6,2.6-2.4,3.8-3.7c0.8-0.8,1.3-2,2.3-2.5c4.9-2.4,6.7-7,8-11.8
				c0.7-2.9,1.1-5.9,1.6-8.8c0.3-1.5,0.7-3,1-4.5C227.8,74.9,228.1,74.9,228.5,74.9z"/>
			<path fill="#FFFFFF" d="M219,82.3c0.2,4.6-1.8,8-4.9,10.9c-1.4,1.3-2.6,2.7-3.8,4.2c-2.1,2.8-4.7,2.8-7.1-0.7
				C210.6,94.3,215.7,89.3,219,82.3z"/>
			<path fill="#FFFFFF" d="M216.4,74.3c-0.1,3.1-1.5,5.3-3.9,6c-0.6,0.2-1.4,0-2.1,0c0.2-0.7,0.3-1.3,0.6-2c0.6-1.3,1.5-2.6,1.9-4
				c0.4-1.4,0.1-2.6-1.8-2.9c-0.5-0.1-1-0.8-1.5-1.3c0.6-0.3,1.2-0.9,1.8-1C214.2,69,216.5,71.4,216.4,74.3z"/>
			<path fill="#FFFFFF" d="M199.8,91.9c-0.8-1.6-2.3-3.2-2.2-4.7c0.1-2.1-0.3-3.8-1.3-5.6c-1.1-2.1-0.4-3.8,1.9-4.8
				c0.1,0.6,0.1,1.1,0.2,1.6c0.3,1.3,0.4,2.7,1,3.8c1.5,3,2.1,6,1.6,9.2C200.6,91.6,200.2,91.8,199.8,91.9z"/>
			<path fill="#FFFFFF" d="M369.5,94.9c0.4,0.4,0.9,0.8,1.2,1.3c4.4,8.3,11.1,13.2,20.6,14.2c5.8,0.6,10.7-2.5,12-8.2
				c0.8-3.7,0.7-7.7,1-11.6c0.1-1.1-0.1-2.1-0.2-3.2c0.2-0.1,0.4-0.2,0.6-0.3c0.5,0.7,1.2,1.3,1.5,2.1c3.8,9.5,5.2,19.3,3,29.3
				c-0.9,4-3.1,7.4-6.3,9.9c-0.8,0.6-1.9,0.9-3,1c-1.9,0.2-3.8,0.1-5.7,0.2c-2.2,0.1-3.9-0.7-4.6-3c-0.5-1.5-1.5-1.7-2.7-0.9
				c-2.3,1.5-4,0.8-5.9-1.1c-7.6-7.3-11-16.4-12.3-26.6c-0.1-1,0.1-2,0.2-3C369.1,95,369.3,94.9,369.5,94.9z"/>
			<path fill="#FFFFFF" d="M398.1,87.1c2.1,5.2,0.2,15.6-3.7,19.4c-0.3,0.3-1,0.4-1.4,0.6c0-0.6-0.2-1.4,0-1.8
				c1.4-2.2,2.7-4.3,0.9-6.8c0-0.1,0-0.2,0-0.2c1.1-3.8,2.3-7.6,3.5-11.3C397.6,87,397.8,87.1,398.1,87.1z"/>
			<path fill="#FFFFFF" d="M384.9,101c-1-0.3-1.9-0.4-2.6-0.8c-3.8-2.1-6.1-5.6-8.1-9.2c-0.3-0.5,0-1.2,0-1.8c0.7,0.1,1.5,0,2,0.3
				c0.7,0.5,1.1,1.4,1.6,2.2C380,94.6,382.3,97.6,384.9,101z"/>
			<path fill="#FFFFFF" d="M386.6,83.1c-2-1.3-4.1-3-4.4-5.4c-0.2-1.4,1.2-3.3,2.3-4.5c0.6-0.7,2.2-0.6,3.7-0.9
				c-1.3,2.2-2.8,3.8-2.9,5.3c0,1.6,1.4,3.3,2.1,4.9C387.2,82.7,386.9,82.9,386.6,83.1z"/>
			<path fill="#FFFFFF" d="M371.2,78.7c-0.1-0.4-0.7-1.2-0.5-1.6c0.7-1.4,1.6-2.8,2.7-4.1c0.2-0.3,1.8,0.1,2.1,0.5
				C376.1,74.9,373.2,78.7,371.2,78.7z"/>
			<path fill="#FFFFFF" d="M382.4,91.5c-2.1-0.8-3.1-2.6-3.6-4.7c-0.1-0.4,0.3-1.2,0.5-1.2c0.5-0.1,1.3,0.1,1.5,0.4
				c0.9,1.6,1.7,3.2,2.5,4.9C383,91.1,382.7,91.3,382.4,91.5z"/>
		</g>
	</g>
	<path fill="#E31E26" d="M281,207.5c0,0,4,3,18.2,2.8s28.8-3,31.5-4.8c0,0-1.5,21.5-15.5,34.5s-15,12.8-15,12.8s-22-21.8-26.5-38
		C273.8,214.8,273,207.5,281,207.5z"/>
</g>
</svg>
